<svg width="57" height="16" viewBox="0 0 57 16" fill="none" xmlns="http://www.w3.org/2000/svg">
<path d="M4.45312 15H0.869141C0.817057 15 0.791016 14.9674 0.791016 14.9023L0.830078 1.16211C0.830078 1.11003 0.85612 1.08398 0.908203 1.08398H4.75586C5.50456 1.08398 6.1849 1.26628 6.79688 1.63086C7.39583 1.99544 7.86784 2.48047 8.21289 3.08594C8.55794 3.6849 8.73047 4.33594 8.73047 5.03906C8.73047 5.61198 8.60026 6.14583 8.33984 6.64062C8.07943 7.13542 7.77018 7.53581 7.41211 7.8418C7.79622 8.22591 8.0957 8.67188 8.31055 9.17969C8.52539 9.6875 8.63281 10.2214 8.63281 10.7812C8.63281 11.556 8.44727 12.2624 8.07617 12.9004C7.69857 13.5384 7.19401 14.0495 6.5625 14.4336C5.93099 14.8112 5.22786 15 4.45312 15ZM4.75586 3.45703H3.23242V6.60156H4.75586C5.2181 6.60156 5.59245 6.4388 5.87891 6.11328C6.16536 5.78125 6.30859 5.42318 6.30859 5.03906C6.30859 4.61589 6.1556 4.24805 5.84961 3.93555C5.54362 3.61654 5.17904 3.45703 4.75586 3.45703ZM4.45312 9.02344H3.23242L3.21289 12.5586H4.45312C4.9349 12.5586 5.34831 12.3828 5.69336 12.0312C6.03841 11.6797 6.21094 11.263 6.21094 10.7812C6.21094 10.2995 6.03841 9.88607 5.69336 9.54102C5.34831 9.19596 4.9349 9.02344 4.45312 9.02344ZM13.7695 15.1953C13.0599 15.1953 12.4056 15.013 11.8066 14.6484C11.2142 14.2839 10.7357 13.7988 10.3711 13.1934C10.013 12.5814 9.83398 11.9108 9.83398 11.1816L9.85352 4.84375C9.85352 4.10156 10.0326 3.43424 10.3906 2.8418C10.7422 2.24284 11.2174 1.76432 11.8164 1.40625C12.4154 1.04167 13.0664 0.859375 13.7695 0.859375C14.4987 0.859375 15.153 1.03841 15.7324 1.39648C16.3184 1.75456 16.7871 2.23633 17.1387 2.8418C17.4967 3.44076 17.6758 4.10807 17.6758 4.84375L17.6953 11.1816C17.6953 11.9108 17.5195 12.5781 17.168 13.1836C16.8099 13.7956 16.3346 14.2839 15.7422 14.6484C15.1497 15.013 14.4922 15.1953 13.7695 15.1953ZM13.7695 12.7832C14.1732 12.7832 14.5247 12.6204 14.8242 12.2949C15.1237 11.9629 15.2734 11.5918 15.2734 11.1816L15.2539 4.84375C15.2539 4.40104 15.1139 4.02669 14.834 3.7207C14.554 3.41471 14.1992 3.26172 13.7695 3.26172C13.3594 3.26172 13.0078 3.41146 12.7148 3.71094C12.4219 4.01042 12.2754 4.38802 12.2754 4.84375V11.1816C12.2754 11.6178 12.4219 11.9954 12.7148 12.3145C13.0078 12.627 13.3594 12.7832 13.7695 12.7832ZM25.752 15H19.2871C19.235 15 19.209 14.9674 19.209 14.9023L19.2285 1.18164C19.2285 1.11654 19.2611 1.08398 19.3262 1.08398H21.5527C21.6178 1.08398 21.6504 1.11654 21.6504 1.18164L21.6309 12.5391H25.752C25.8171 12.5391 25.8496 12.5716 25.8496 12.6367V14.9023C25.8496 14.9674 25.8171 15 25.752 15ZM31.4258 15H29.1699C29.1113 15 29.082 14.9674 29.082 14.9023V3.49609H26.4844C26.4193 3.49609 26.3867 3.46354 26.3867 3.39844L26.4062 1.16211C26.4062 1.11003 26.4323 1.08398 26.4844 1.08398H34.082C34.1536 1.08398 34.1895 1.11003 34.1895 1.16211V3.39844C34.1895 3.46354 34.1634 3.49609 34.1113 3.49609H31.4844L31.5039 14.9023C31.5039 14.9674 31.4779 15 31.4258 15ZM37.5293 15H35.2637C35.1986 15 35.166 14.9674 35.166 14.9023L35.1855 1.16211C35.1855 1.11003 35.2116 1.08398 35.2637 1.08398H37.5098C37.5618 1.08398 37.5879 1.11003 37.5879 1.16211L37.6074 14.9023C37.6074 14.9674 37.5814 15 37.5293 15ZM43.0469 15.1953C42.3242 15.1953 41.6634 15.013 41.0645 14.6484C40.472 14.2839 40 13.7956 39.6484 13.1836C39.3034 12.5651 39.1309 11.8783 39.1309 11.123L39.1504 4.88281C39.1504 4.14062 39.3197 3.47005 39.6582 2.87109C39.9967 2.26562 40.4622 1.7806 41.0547 1.41602C41.6536 1.04492 42.3177 0.859375 43.0469 0.859375C43.7891 0.859375 44.4499 1.03841 45.0293 1.39648C45.6152 1.75456 46.0807 2.23958 46.4258 2.85156C46.7773 3.45703 46.9531 4.13411 46.9531 4.88281V5.80078C46.9531 5.85286 46.9271 5.87891 46.875 5.87891H44.6289C44.5768 5.87891 44.5508 5.85286 44.5508 5.80078V4.88281C44.5508 4.4401 44.4076 4.05924 44.1211 3.74023C43.8346 3.42122 43.4766 3.26172 43.0469 3.26172C42.5716 3.26172 42.207 3.42448 41.9531 3.75C41.6992 4.07552 41.5723 4.45312 41.5723 4.88281V11.123C41.5723 11.6113 41.7155 12.0117 42.002 12.3242C42.2884 12.6302 42.6367 12.7832 43.0469 12.7832C43.4766 12.7832 43.8346 12.6139 44.1211 12.2754C44.4076 11.9303 44.5508 11.5462 44.5508 11.123V10.1953C44.5508 10.1432 44.5768 10.1172 44.6289 10.1172H46.8945C46.9466 10.1172 46.9727 10.1432 46.9727 10.1953V11.123C46.9727 11.8717 46.7969 12.5553 46.4453 13.1738C46.0872 13.7858 45.6152 14.2773 45.0293 14.6484C44.4434 15.013 43.7826 15.1953 43.0469 15.1953ZM50.7715 15H48.5059C48.4538 15 48.4277 14.9674 48.4277 14.9023L48.4668 1.18164C48.4668 1.11654 48.4928 1.08398 48.5449 1.08398H50.791C50.8431 1.08398 50.8691 1.11654 50.8691 1.18164V5.91797L54.0039 1.16211C54.056 1.11003 54.1048 1.08398 54.1504 1.08398H56.4453C56.5039 1.08398 56.5169 1.11003 56.4844 1.16211L53.0273 6.67969L56.9043 14.9219C56.9368 14.974 56.9043 15 56.8066 15H54.3652C54.3001 15 54.2611 14.974 54.248 14.9219L51.543 9.04297L50.8496 10.1367V14.9023C50.8496 14.9674 50.8236 15 50.7715 15Z" fill="black"/>
</svg>
